<svg width="134" height="135" viewBox="0 0 134 135" fill="none" xmlns="http://www.w3.org/2000/svg">
<path d="M134 67.0076C134 104.011 104.003 134.008 67 134.008C29.9969 134.008 0 104.011 0 67.0076C0 30.0045 29.9969 0.00756836 67 0.00756836C104.003 0.00756836 134 30.0045 134 67.0076Z" fill="#590D56"/>
<path d="M90.5 67.0076C90.5 79.9863 79.9787 90.5076 67 90.5076C54.0213 90.5076 43.5 79.9863 43.5 67.0076C43.5 54.0289 54.0213 43.5076 67 43.5076C79.9787 43.5076 90.5 54.0289 90.5 67.0076Z" stroke="white"/>
<path d="M71.5 67.0076C71.5 69.4928 69.4853 71.5076 67 71.5076C64.5147 71.5076 62.5 69.4928 62.5 67.0076C62.5 64.5223 64.5147 62.5076 67 62.5076C69.4853 62.5076 71.5 64.5223 71.5 67.0076Z" stroke="white"/>
</svg>
