<?xml version="1.0" standalone="no"?>
<!DOCTYPE svg PUBLIC "-//W3C//DTD SVG 20010904//EN"
 "http://www.w3.org/TR/2001/REC-SVG-20010904/DTD/svg10.dtd">
<svg version="1.0" xmlns="http://www.w3.org/2000/svg"
 width="374.000000pt" height="374.000000pt" viewBox="0 0 374.000000 374.000000"
 preserveAspectRatio="xMidYMid meet">
<metadata>
Created by potrace 1.14, written by Peter Selinger 2001-2017
</metadata>
<g transform="translate(0.000000,374.000000) scale(0.100000,-0.100000)"
fill="#000000" stroke="none">
<path d="M3087 3204 c-1 -1 -83 -5 -182 -9 -168 -6 -227 -9 -525 -19 -120 -5
-322 -13 -525 -21 -117 -5 -279 -11 -500 -20 -60 -2 -168 -7 -240 -10 -71 -2
-195 -7 -275 -10 -80 -3 -201 -8 -270 -11 -69 -2 -182 -7 -252 -9 -71 -2 -131
-6 -135 -8 -5 -3 -7 -29 -7 -59 1 -29 5 -285 8 -568 4 -283 9 -666 12 -850 2
-184 6 -476 8 -648 l4 -312 68 -166 69 -166 155 7 c85 4 180 9 210 11 30 2
102 6 160 8 202 11 286 15 380 21 97 5 246 13 405 20 50 3 126 7 170 9 126 8
345 19 402 20 29 1 53 3 53 6 0 3 37 5 83 6 83 1 296 11 397 19 30 2 116 7
190 10 259 13 500 26 565 30 28 2 56 4 63 4 9 1 12 255 12 1238 l0 1236 -52
61 c-49 55 -71 78 -162 159 l-31 28 -128 -3 c-71 -2 -129 -4 -130 -4z"/>
</g>
</svg>
